<svg width="25" height="25" viewBox="0 0 25 25" fill="none" xmlns="http://www.w3.org/2000/svg">
<path d="M19.75 11.25H17.75C15.33 11.25 14 9.92 14 7.5V5.5C14 3.08 15.33 1.75 17.75 1.75H19.75C22.17 1.75 23.5 3.08 23.5 5.5V7.5C23.5 9.92 22.17 11.25 19.75 11.25ZM17.75 3.25C16.17 3.25 15.5 3.92 15.5 5.5V7.5C15.5 9.08 16.17 9.75 17.75 9.75H19.75C21.33 9.75 22 9.08 22 7.5V5.5C22 3.92 21.33 3.25 19.75 3.25H17.75Z" fill="#6F7384"/>
<path d="M7.75 23.25H5.75C3.33 23.25 2 21.92 2 19.5V17.5C2 15.08 3.33 13.75 5.75 13.75H7.75C10.17 13.75 11.5 15.08 11.5 17.5V19.5C11.5 21.92 10.17 23.25 7.75 23.25ZM5.75 15.25C4.17 15.25 3.5 15.92 3.5 17.5V19.5C3.5 21.08 4.17 21.75 5.75 21.75H7.75C9.33 21.75 10 21.08 10 19.5V17.5C10 15.92 9.33 15.25 7.75 15.25H5.75Z" fill="#6F7384"/>
<path d="M6.75 11.25C4.13 11.25 2 9.12 2 6.5C2 3.88 4.13 1.75 6.75 1.75C9.37 1.75 11.5 3.88 11.5 6.5C11.5 9.12 9.37 11.25 6.75 11.25ZM6.75 3.25C4.96 3.25 3.5 4.71 3.5 6.5C3.5 8.29 4.96 9.75 6.75 9.75C8.54 9.75 10 8.29 10 6.5C10 4.71 8.54 3.25 6.75 3.25Z" fill="#6F7384"/>
<path d="M18.75 23.25C16.13 23.25 14 21.12 14 18.5C14 15.88 16.13 13.75 18.75 13.75C21.37 13.75 23.5 15.88 23.5 18.5C23.5 21.12 21.37 23.25 18.75 23.25ZM18.75 15.25C16.96 15.25 15.5 16.71 15.5 18.5C15.5 20.29 16.96 21.75 18.75 21.75C20.54 21.75 22 20.29 22 18.5C22 16.71 20.54 15.25 18.75 15.25Z" fill="#6F7384"/>
</svg>
