<svg width="25" height="25" viewBox="0 0 25 25" fill="none" xmlns="http://www.w3.org/2000/svg">
<path d="M12.25 22.1496C11.94 22.1496 11.64 22.1096 11.39 22.0196C7.57 20.7096 1.5 16.0596 1.5 9.18961C1.5 5.68961 4.33 2.84961 7.81 2.84961C9.5 2.84961 11.08 3.50961 12.25 4.68961C13.42 3.50961 15 2.84961 16.69 2.84961C20.17 2.84961 23 5.69961 23 9.18961C23 16.0696 16.93 20.7096 13.11 22.0196C12.86 22.1096 12.56 22.1496 12.25 22.1496ZM7.81 4.34961C5.16 4.34961 3 6.51961 3 9.18961C3 16.0196 9.57 19.8196 11.88 20.6096C12.06 20.6696 12.45 20.6696 12.63 20.6096C14.93 19.8196 21.51 16.0296 21.51 9.18961C21.51 6.51961 19.35 4.34961 16.7 4.34961C15.18 4.34961 13.77 5.05961 12.86 6.28961C12.58 6.66961 11.94 6.66961 11.66 6.28961C10.73 5.04961 9.33 4.34961 7.81 4.34961Z" fill="#6F7384"/>
</svg>
