<svg width="32" height="32" viewBox="0 0 32 32" fill="none" xmlns="http://www.w3.org/2000/svg">
<path d="M16.4982 16.0007L12.2707 11.5401C12.0973 11.3704 12 11.1412 12 10.9024C12 10.6635 12.0973 10.4343 12.2707 10.2646C12.3559 10.1808 12.4574 10.1142 12.5693 10.0688C12.6813 10.0234 12.8014 10 12.9228 10C13.0442 10 13.1643 10.0234 13.2763 10.0688C13.3882 10.1142 13.4897 10.1808 13.5749 10.2646L18.7297 15.3616C18.9029 15.5317 19 15.761 19 16C19 16.239 18.9029 16.4683 18.7297 16.6384L13.5749 21.7354C13.4897 21.8192 13.3882 21.8858 13.2763 21.9312C13.1643 21.9766 13.0442 22 12.9228 22C12.8014 22 12.6813 21.9766 12.5693 21.9312C12.4574 21.8858 12.3559 21.8192 12.2707 21.7354C12.0973 21.5657 12 21.3365 12 21.0976C12 20.8588 12.0973 20.6296 12.2707 20.4599L16.4982 16.0007Z" fill="#6F7384"/>
</svg>
