<svg width="57" height="9" viewBox="0 0 57 9" fill="none" xmlns="http://www.w3.org/2000/svg">
<path d="M4.5 0.25L6.02963 2.85796L9 3.49671L6.975 5.74727L7.28115 8.75L4.5 7.53296L1.71885 8.75L2.025 5.74727L0 3.49671L2.97037 2.85796L4.5 0.25Z" fill="#FFCB45"/>
<path d="M16.5 0.25L18.0296 2.85796L21 3.49671L18.975 5.74727L19.2812 8.75L16.5 7.53296L13.7188 8.75L14.025 5.74727L12 3.49671L14.9704 2.85796L16.5 0.25Z" fill="#FFCB45"/>
<path d="M28.5 0.25L30.0296 2.85796L33 3.49671L30.975 5.74727L31.2812 8.75L28.5 7.53296L25.7188 8.75L26.025 5.74727L24 3.49671L26.9704 2.85796L28.5 0.25Z" fill="#FFCB45"/>
<path d="M40.5 0.25L42.0296 2.85796L45 3.49671L42.975 5.74727L43.2812 8.75L40.5 7.53296L37.7188 8.75L38.025 5.74727L36 3.49671L38.9704 2.85796L40.5 0.25Z" fill="#FFCB45"/>
<path d="M52.5 0.25L54.0296 2.85796L57 3.49671L54.975 5.74727L55.2812 8.75L52.5 7.53296L49.7188 8.75L50.025 5.74727L48 3.49671L50.9704 2.85796L52.5 0.25Z" fill="#F4F5FD"/>
<path d="M49.7188 8.75L52.5 7.53296V0.25L50.9704 2.85796L48 3.49671L50.025 5.74727L49.7188 8.75Z" fill="#FFCB45"/>
</svg>
