<svg width="32" height="32" viewBox="0 0 32 32" fill="none" xmlns="http://www.w3.org/2000/svg">
<path d="M23.2533 20.4933C23 20.4933 22.7467 20.3999 22.5467 20.1999C22.16 19.8133 22.16 19.1733 22.5467 18.7866L25.2533 16.0799L22.5467 13.3733C22.16 12.9866 22.16 12.3466 22.5467 11.9599C22.9333 11.5733 23.5733 11.5733 23.96 11.9599L27.3733 15.3733C27.76 15.7599 27.76 16.3999 27.3733 16.7866L23.96 20.1999C23.76 20.3999 23.5067 20.4933 23.2533 20.4933Z" fill="white"/>
<path d="M26.5733 17.0801H13.0133C12.4667 17.0801 12.0133 16.6267 12.0133 16.0801C12.0133 15.5334 12.4667 15.0801 13.0133 15.0801H26.5733C27.12 15.0801 27.5733 15.5334 27.5733 16.0801C27.5733 16.6267 27.12 17.0801 26.5733 17.0801Z" fill="white"/>
<path d="M15.68 27.6673C8.81334 27.6673 4.01334 22.8673 4.01334 16.0007C4.01334 9.13398 8.81334 4.33398 15.68 4.33398C16.2267 4.33398 16.68 4.78732 16.68 5.33398C16.68 5.88065 16.2267 6.33398 15.68 6.33398C9.98667 6.33398 6.01334 10.3073 6.01334 16.0007C6.01334 21.694 9.98667 25.6673 15.68 25.6673C16.2267 25.6673 16.68 26.1206 16.68 26.6673C16.68 27.214 16.2267 27.6673 15.68 27.6673Z" fill="white"/>
</svg>
