<svg width="24" height="24" viewBox="0 0 24 24" fill="none" xmlns="http://www.w3.org/2000/svg">
<rect width="24" height="24" rx="4" fill="#21D4B4"/>
<path d="M12 20.9587C7.05835 20.9587 3.04169 16.942 3.04169 12.0003C3.04169 7.05866 7.05835 3.04199 12 3.04199C16.9417 3.04199 20.9584 7.05866 20.9584 12.0003C20.9584 16.942 16.9417 20.9587 12 20.9587ZM12 4.29199C7.75002 4.29199 4.29169 7.75033 4.29169 12.0003C4.29169 16.2503 7.75002 19.7087 12 19.7087C16.25 19.7087 19.7084 16.2503 19.7084 12.0003C19.7084 7.75033 16.25 4.29199 12 4.29199Z" fill="white"/>
<path d="M10.8166 14.9837C10.65 14.9837 10.4916 14.917 10.375 14.8003L8.01664 12.442C7.77497 12.2003 7.77497 11.8003 8.01664 11.5587C8.2583 11.317 8.6583 11.317 8.89997 11.5587L10.8166 13.4753L15.1 9.19199C15.3416 8.95033 15.7416 8.95033 15.9833 9.19199C16.225 9.43366 16.225 9.83366 15.9833 10.0753L11.2583 14.8003C11.1416 14.917 10.9833 14.9837 10.8166 14.9837Z" fill="white"/>
</svg>
