<svg width="24" height="24" viewBox="0 0 24 24" fill="none" xmlns="http://www.w3.org/2000/svg">
<path d="M18.9999 18.2504C18.8099 18.2504 18.6199 18.1804 18.4699 18.0304L4.46994 4.03043C4.17994 3.74043 4.17994 3.26043 4.46994 2.97043C4.75994 2.68043 5.23994 2.68043 5.52994 2.97043L19.5299 16.9704C19.8199 17.2604 19.8199 17.7404 19.5299 18.0304C19.3799 18.1804 19.1899 18.2504 18.9999 18.2504Z" fill="#C0C0C0"/>
<path d="M5 14.52C4.59 14.52 4.25 14.18 4.25 13.77V3.5C4.25 3.09 4.59 2.75 5 2.75H15.27C15.68 2.75 16.02 3.09 16.02 3.5C16.02 3.91 15.68 4.25 15.27 4.25H5.75V13.77C5.75 14.18 5.41 14.52 5 14.52Z" fill="#C0C0C0"/>
</svg>
