<svg width="72" height="76" viewBox="0 0 72 76" fill="none" xmlns="http://www.w3.org/2000/svg">
<path fill-rule="evenodd" clip-rule="evenodd" d="M41.4834 45.9726C44.8635 42.5806 50.3436 42.5806 53.7237 45.9726L68.8703 61.1726C72.2503 64.5645 72.2503 70.064 68.8703 73.456C65.4902 76.848 60.01 76.848 56.63 73.456L41.4834 58.256C38.1033 54.864 38.1033 49.3645 41.4834 45.9726Z" fill="#21D4B4"/>
<path d="M69.2415 34.7429C69.2415 53.9308 53.7413 69.4857 34.6208 69.4857C15.5002 69.4857 0 53.9308 0 34.7429C0 15.5549 15.5002 0 34.6208 0C53.7413 0 69.2415 15.5549 69.2415 34.7429ZM22.4331 34.7429C22.4331 41.4977 27.8897 46.9735 34.6208 46.9735C41.3518 46.9735 46.8085 41.4977 46.8085 34.7429C46.8085 27.988 41.3518 22.5122 34.6208 22.5122C27.8897 22.5122 22.4331 27.988 22.4331 34.7429Z" fill="#21D4B4"/>
</svg>
